<?xml version="1.0" encoding="utf-8"?><svg xmlns="http://www.w3.org/2000/svg" xmlns:xlink="http://www.w3.org/1999/xlink" width="521" height="352" preserveAspectRatio="xMidYMid" viewBox="0 0 521 352" style="z-index:1;margin-right:-2px;display:block;background-repeat-y:initial;background-repeat-x:initial;animation-play-state:paused" ><g transform="" style="animation-play-state:paused" ><linearGradient id="lg-0.9017401488706656" x1="0" x2="1" y1="0" y2="0" style="animation-play-state:paused" ><stop stop-color="#d4487f" offset="0" style="animation-play-state:paused" ></stop>

  
<stop stop-color="#f36076" offset="1" style="animation-play-state:paused" ></stop></linearGradient>
<path d="M 0 0 L 0 325.762 Q 52.1 339.976 104.2 301.743 T 208.4 309.889 T 312.6 279.321 T 416.8 276.98 T 521 260.796 L 521 0 Z" fill="url(#lg-0.9017401488706656)" opacity="0.4" style="opacity:0.4;animation-play-state:paused" ></path>
<path d="M 0 0 L 0 315.323 Q 52.1 326.812 104.2 305.85 T 208.4 298.639 T 312.6 288.262 T 416.8 282.114 T 521 272.077 L 521 0 Z" fill="url(#lg-0.9017401488706656)" opacity="0.4" style="opacity:0.4;animation-play-state:paused" ></path>
<path d="M 0 0 L 0 333.165 Q 52.1 351.542 104.2 315.321 T 208.4 300.311 T 312.6 298.638 T 416.8 279.553 T 521 277.481 L 521 0 Z" fill="url(#lg-0.9017401488706656)" opacity="0.4" style="opacity:0.4;animation-play-state:paused" ></path></g></svg>